PathFileType	4	(X/Y/Z)	D:\Documents\paper\Opensim\Pipline\Result\suihongtao\30DJ0001\original_data\suihongtao_30DJ0001_static.trc	
DataRate	CameraRate	NumFrames	NumMarkers	Units	OrigDataRate	OrigDataStartFrame	OrigNumFrames	
200	200	12	27	mm	200	831	1108	
Frame#	Time	Top.Head			L.Acromium			R.Acromium			Sternum			L.ASIS			R.ASIS			L.PSIS			R.PSIS			V.Sacral			L.Thigh.Front			L.Knee.Lat			L.Knee.Med			L.Shank.Front			L.Ankle.Lat			L.Ankle.Med			L.Heel			L.Toe.Lat			L.Toe.Tip			R.Thigh.Front			R.Knee.Lat			R.Knee.Med			R.Shank.Front			R.Ankle.Lat			R.Ankle.Med			R.Heel			R.Toe.Lat			R.Toe.Tip
		X1	Y1	Z1	X2	Y2	Z2	X3	Y3	Z3	X4	Y4	Z4	X5	Y5	Z5	X6	Y6	Z6	X7	Y7	Z7	X8	Y8	Z8	X9	Y9	Z9	X10	Y10	Z10	X11	Y11	Z11	X12	Y12	Z12	X13	Y13	Z13	X14	Y14	Z14	X15	Y15	Z15	X16	Y16	Z16	X17	Y17	Z17	X18	Y18	Z18	X19	Y19	Z19	X20	Y20	Z20	X21	Y21	Z21	X22	Y22	Z22	X23	Y23	Z23	X24	Y24	Z24	X25	Y25	Z25	X26	Y26	Z26	X27	Y27	Z27
832	4.155000	348.399734	1628.615971	-771.189619	207.739063	1313.003621	-639.037690	491.144733	1309.642486	-852.803543	298.554868	1301.473251	-823.037568	183.750880	893.263444	-752.937368	360.411953	894.910959	-907.535040	364.208059	910.679976	-655.100483	440.657204	905.752280	-714.050926	402.432475	908.216309	-684.575947	212.025013	537.356495	-752.760203	214.916523	447.527840	-633.302538	325.187704	424.000672	-696.895807	238.537042	379.459847	-692.369031	224.608676	86.336443	-616.770731	276.502169	102.670767	-683.803110	292.100664	47.790112	-598.881605	143.011919	32.717571	-694.549613	165.456791	55.563034	-757.982101	359.583499	529.693923	-853.459365	487.437513	441.926298	-831.035279	397.293916	423.221440	-746.277851	435.361753	375.777429	-825.038744	505.315215	89.683269	-811.112767	430.848358	99.989266	-775.478012	501.184103	44.599963	-728.371949	473.626964	34.820992	-903.082931	388.683426	49.744360	-902.479794	
833	4.160000	348.437765	1628.620434	-771.196684	207.784056	1313.001642	-638.996299	491.183093	1309.632977	-852.768800	298.585253	1301.476511	-822.997547	183.766270	893.267250	-752.898795	360.421992	894.909247	-907.508995	364.221460	910.675575	-655.077862	440.669708	905.750146	-714.025730	402.445376	908.213094	-684.552091	212.031393	537.357528	-752.741826	214.926108	447.527135	-633.291895	325.190332	424.002976	-696.890591	238.537959	379.466149	-692.357178	224.614990	86.333048	-616.770466	276.502211	102.665256	-683.793221	292.103709	47.789225	-598.882014	143.007271	32.721401	-694.551993	165.456327	55.563704	-757.980003	359.586097	529.703607	-853.449278	487.443831	441.927226	-831.021762	397.300489	423.207945	-746.262439	435.362580	375.784298	-825.027798	505.350902	89.673055	-811.062685	430.849721	99.989107	-775.478078	501.187864	44.602689	-728.370485	473.626199	34.828672	-903.082956	388.684968	49.742878	-902.477356	
834	4.165000	348.477525	1628.623804	-771.201961	207.830524	1313.003542	-638.954963	491.220920	1309.623403	-852.734658	298.620102	1301.480853	-822.959570	183.781531	893.270407	-752.860869	360.430184	894.909183	-907.483138	364.235914	910.669827	-655.054119	440.681462	905.749414	-714.002096	402.458536	908.209884	-684.528377	212.035145	537.360714	-752.722628	214.936572	447.529923	-633.280166	325.192046	424.009786	-696.890847	238.540439	379.474627	-692.344882	224.620268	86.330806	-616.769606	276.503402	102.663733	-683.790598	292.106034	47.786869	-598.882292	143.003163	32.727390	-694.553277	165.454222	55.563056	-757.977047	359.589765	529.711732	-853.438746	487.449636	441.929572	-831.008772	397.314104	423.198938	-746.249372	435.365017	375.792173	-825.017340	505.369743	89.667703	-811.041604	430.851341	99.987380	-775.480696	501.190771	44.605669	-728.370386	473.624063	34.833081	-903.081417	388.688160	49.741979	-902.477238	
835	4.170000	348.518653	1628.624845	-771.204806	207.878769	1313.011051	-638.913805	491.257436	1309.611895	-852.701413	298.659745	1301.485738	-822.924052	183.796494	893.273759	-752.823918	360.437090	894.912064	-907.456876	364.251643	910.664160	-655.029545	440.693733	905.747544	-713.980472	402.472642	908.206109	-684.505210	212.036949	537.365018	-752.703051	214.945311	447.536531	-633.268125	325.191973	424.018409	-696.891423	238.544623	379.483342	-692.333068	224.624300	86.329442	-616.769114	276.505043	102.667767	-683.795014	292.106583	47.784349	-598.882062	143.001042	32.733753	-694.553721	165.452394	55.561077	-757.973445	359.592685	529.717273	-853.428389	487.454488	441.933651	-830.997380	397.331177	423.194495	-746.237414	435.368540	375.799653	-825.009022	505.377531	89.665280	-811.037842	430.851415	99.984774	-775.485541	501.192025	44.607038	-728.371727	473.620736	34.835618	-903.078472	388.692200	49.742120	-902.479238	
836	4.175000	348.560746	1628.623345	-771.206118	207.926684	1313.024483	-638.873160	491.292586	1309.596433	-852.668928	298.701982	1301.489237	-822.890442	183.810894	893.277788	-752.788138	360.444076	894.916818	-907.429596	364.268985	910.659664	-655.004312	440.708119	905.743837	-713.960953	402.488587	908.201966	-684.482757	212.038881	537.369591	-752.682869	214.950171	447.545815	-633.256009	325.190983	424.027100	-696.889566	238.550412	379.490868	-692.322793	224.627063	86.329675	-616.769292	276.506490	102.675365	-683.801748	292.105623	47.783869	-598.881601	143.001620	32.738528	-694.553262	165.451926	55.559349	-757.970180	359.594616	529.719832	-853.417702	487.458965	441.939051	-830.988752	397.349261	423.191239	-746.222287	435.371806	375.805191	-825.002448	505.379824	89.664563	-811.041164	430.849358	99.980434	-775.490251	501.191642	44.605870	-728.375046	473.617363	34.838308	-903.075924	388.695348	49.742271	-902.481944	
837	4.180000	348.604138	1628.619736	-771.207108	207.971615	1313.041630	-638.833974	491.327016	1309.577096	-852.637680	298.743856	1301.489654	-822.858262	183.825049	893.282278	-752.753501	360.452240	894.921477	-907.401487	364.288220	910.656154	-654.977614	440.725445	905.739229	-713.942693	402.506902	908.197851	-684.460192	212.042650	537.374544	-752.662963	214.950199	447.556366	-633.243936	325.191293	424.033660	-696.885124	238.557710	379.496216	-692.314288	224.628520	86.332664	-616.769527	276.507744	102.681337	-683.804922	292.104752	47.786894	-598.881852	143.004194	32.741213	-694.552286	165.453020	55.559413	-757.968144	359.597067	529.719993	-853.405365	487.463154	441.943474	-830.982697	397.365872	423.186029	-746.202564	435.374034	375.807395	-824.996189	505.379541	89.664382	-811.045843	430.847049	99.973077	-775.492702	501.189956	44.602470	-728.380452	473.615174	34.841038	-903.075794	388.695921	49.742032	-902.484084	
838	4.185000	348.649291	1628.614342	-771.207403	208.012735	1313.059059	-638.797167	491.361380	1309.556136	-852.608856	298.783194	1301.486965	-822.827558	183.840163	893.286873	-752.720004	360.461413	894.925189	-907.373846	364.308752	910.653055	-654.948484	440.745478	905.734822	-713.924212	402.527198	908.194047	-684.436287	212.047950	537.381465	-752.645220	214.946250	447.567436	-633.232298	325.194910	424.034846	-696.878492	238.565763	379.498410	-692.306665	224.629139	86.337761	-616.768935	276.509697	102.682172	-683.802763	292.104965	47.792224	-598.883674	143.007666	32.742608	-694.552210	165.455189	55.561402	-757.967794	359.601718	529.718528	-853.390555	487.466321	441.944567	-830.977391	397.376141	423.180617	-746.183447	435.375649	375.805282	-824.989222	505.377877	89.663753	-811.049229	430.847135	99.963404	-775.492732	501.187629	44.599142	-728.387245	473.614460	34.841692	-903.078766	388.693815	49.742143	-902.485520	
839	4.190000	348.695766	1628.607307	-771.205920	208.050373	1313.074587	-638.763231	491.395348	1309.535661	-852.583162	298.818960	1301.482297	-822.798014	183.857110	893.291348	-752.687667	360.470206	894.928322	-907.347824	364.329607	910.650099	-654.917454	440.767136	905.731203	-713.904042	402.548453	908.190724	-684.410588	212.052675	537.392164	-752.630657	214.941856	447.576852	-633.220679	325.202180	424.028895	-696.869390	238.573141	379.497136	-692.298603	224.629528	86.342538	-616.766809	276.512774	102.679211	-683.798980	292.105604	47.796722	-598.886858	143.011350	32.742900	-694.554244	165.457070	55.564343	-757.969346	359.609152	529.715486	-853.373228	487.468487	441.941615	-830.970517	397.376524	423.180071	-746.171495	435.377713	375.798677	-824.980992	505.376376	89.663491	-811.050287	430.850093	99.953646	-775.491474	501.185681	44.599254	-728.394647	473.614571	34.839088	-903.083858	388.690731	49.744020	-902.487090	
840	4.195000	348.742720	1628.598693	-771.202428	208.084515	1313.087674	-638.731901	491.427638	1309.516027	-852.560414	298.851174	1301.476425	-822.768435	183.875464	893.295304	-752.655851	360.477431	894.931691	-907.323289	364.350942	910.647687	-654.886610	440.788845	905.728586	-713.881404	402.569950	908.188173	-684.383778	212.055124	537.405941	-752.618255	214.941893	447.580539	-633.207446	325.211606	424.017305	-696.857267	238.578837	379.493568	-692.289597	224.629431	86.345642	-616.762636	276.515301	102.675576	-683.798231	292.105786	47.798069	-598.890247	143.014248	32.741420	-694.557973	165.457096	55.567377	-757.972101	359.618965	529.711168	-853.353783	487.471271	441.935605	-830.960541	397.370331	423.185882	-746.167009	435.381001	375.788629	-824.971203	505.376595	89.664697	-811.048458	430.853921	99.946228	-775.489887	501.184672	44.603932	-728.402089	473.614549	34.834802	-903.089398	388.688745	49.748673	-902.489663	
841	4.200000	348.790109	1628.588802	-771.197256	208.115836	1313.098678	-638.702064	491.457480	1309.496705	-852.540617	298.880730	1301.469888	-822.737834	183.894206	893.298202	-752.622913	360.483045	894.935827	-907.299593	364.373836	910.647190	-654.858304	440.809480	905.726512	-713.856871	402.591675	908.186822	-684.357350	212.055451	537.419616	-752.605339	214.948740	447.576560	-633.191595	325.221212	424.003671	-696.842639	238.582933	379.489625	-692.280188	224.627857	86.348210	-616.756217	276.514731	102.671513	-683.801232	292.105924	47.796532	-598.892601	143.015089	32.737804	-694.561566	165.454685	55.570003	-757.974198	359.629432	529.707198	-853.333234	487.475820	441.928332	-830.947234	397.365505	423.192745	-746.163804	435.385563	375.777152	-824.960274	505.378478	89.666404	-811.043820	430.856534	99.943136	-775.488887	501.184033	44.610690	-728.408496	473.613533	34.830699	-903.093859	388.688745	49.754685	-902.493129	
842	4.205000	348.838382	1628.578702	-771.190840	208.146612	1313.108582	-638.672640	491.485654	1309.478086	-852.523940	298.909087	1301.463602	-822.706164	183.912825	893.299932	-752.587407	360.487731	894.940343	-907.276538	364.398710	910.649975	-654.834397	440.829114	905.723712	-713.831906	402.613881	908.186713	-684.332958	212.054841	537.429721	-752.589372	214.961144	447.567218	-633.174194	325.229859	423.990717	-696.827083	238.585997	379.486351	-692.271082	224.624232	86.352215	-616.747939	276.510075	102.665123	-683.805107	292.107110	47.794279	-598.893410	143.013681	32.732184	-694.563297	165.450492	55.571512	-757.974700	359.637765	529.705417	-853.313097	487.481084	441.920995	-830.931283	397.366135	423.194256	-746.156832	435.390927	375.766175	-824.949537	505.379877	89.668118	-811.040283	430.857366	99.944274	-775.489531	501.183027	44.615566	-728.412675	473.610816	34.827078	-903.096103	388.690003	49.759082	-902.496504	
843	4.210000	348.887555	1628.569725	-771.183956	208.179239	1313.117913	-638.643263	491.513676	1309.461568	-852.509548	298.937511	1301.457714	-822.673589	183.931371	893.301092	-752.549713	360.492258	894.944520	-907.254314	364.424838	910.654794	-654.815221	440.848249	905.718945	-713.807698	402.636445	908.186628	-684.311324	212.054385	537.433769	-752.570252	214.976472	447.556397	-633.157432	325.237324	423.978879	-696.811992	238.588410	379.483390	-692.262767	224.619216	86.358379	-616.739113	276.502271	102.655713	-683.806852	292.109446	47.792951	-598.892997	143.011114	32.725862	-694.562941	165.445693	55.571730	-757.974988	359.642573	529.706514	-853.294525	487.485501	441.914411	-830.914314	397.369330	423.190144	-746.147692	435.396866	375.756587	-824.939849	505.375541	89.672554	-811.048232	430.856823	99.947358	-775.492655	501.181726	44.616028	-728.414537	473.606532	34.824291	-903.095884	388.691221	49.761098	-902.499010	
